G04*
G04 #@! TF.GenerationSoftware,Altium Limited,Altium Designer,20.1.11 (218)*
G04*
G04 Layer_Color=128*
%FSLAX44Y44*%
%MOMM*%
G71*
G04*
G04 #@! TF.SameCoordinates,D6E27D56-8FEC-4EB3-A8FA-AAD9F6AF1A09*
G04*
G04*
G04 #@! TF.FilePolarity,Positive*
G04*
G01*
G75*
%ADD31C,0.0508*%
D31*
X2628600Y2310000D02*
X2640600D01*
X2634600Y2304000D02*
Y2316000D01*
X2662500Y2580000D02*
X2677500D01*
X2670000Y2572500D02*
Y2587500D01*
X2502500Y2580000D02*
X2517500D01*
X2510000Y2572500D02*
Y2587500D01*
X2679400Y2310000D02*
X2691400D01*
X2685400Y2304000D02*
Y2316000D01*
X2152500Y2720000D02*
X2167500D01*
X2160000Y2712500D02*
Y2727500D01*
X1992500Y2720000D02*
X2007500D01*
X2000000Y2712500D02*
Y2727500D01*
X2559400Y2300000D02*
X2571400D01*
X2565400Y2294000D02*
Y2306000D01*
X2534000Y2300000D02*
X2546000D01*
X2540000Y2294000D02*
Y2306000D01*
X2508600Y2300000D02*
X2520600D01*
X2514600Y2294000D02*
Y2306000D01*
X2483200Y2300000D02*
X2495200D01*
X2489200Y2294000D02*
Y2306000D01*
X2404000Y2485400D02*
X2416000D01*
X2410000Y2479400D02*
Y2491400D01*
X2404000Y2460000D02*
X2416000D01*
X2410000Y2454000D02*
Y2466000D01*
X2406500Y2434600D02*
X2413500D01*
X2410000Y2431100D02*
Y2438100D01*
X2406500Y2409200D02*
X2413500D01*
X2410000Y2405700D02*
Y2412700D01*
X2406500Y2383800D02*
X2413500D01*
X2410000Y2380300D02*
Y2387300D01*
X2406500Y2358400D02*
X2413500D01*
X2410000Y2354900D02*
Y2361900D01*
X2406500Y2333000D02*
X2413500D01*
X2410000Y2329500D02*
Y2336500D01*
X2404000Y2307600D02*
X2416000D01*
X2410000Y2301600D02*
Y2313600D01*
X2297635Y2311560D02*
X2326845D01*
X2312240Y2296955D02*
Y2326165D01*
X2297635Y2519840D02*
X2326845D01*
X2312240Y2505235D02*
Y2534445D01*
X1860755Y2311560D02*
X1889965D01*
X1875360Y2296955D02*
Y2326165D01*
X1860755Y2519840D02*
X1889965D01*
X1875360Y2505235D02*
Y2534445D01*
X1910000Y2530000D02*
X1922000D01*
X1916000Y2524000D02*
Y2536000D01*
X2013155Y2530000D02*
X2022045D01*
X2017600Y2525555D02*
Y2534445D01*
X1987755Y2530000D02*
X1996645D01*
X1992200Y2525555D02*
Y2534445D01*
X1962355Y2530000D02*
X1971245D01*
X1966800Y2525555D02*
Y2534445D01*
X1936955Y2530000D02*
X1945845D01*
X1941400Y2525555D02*
Y2534445D01*
X2037285Y2530000D02*
X2046175D01*
X2041730Y2525555D02*
Y2534445D01*
X2063955Y2530000D02*
X2072845D01*
X2068400Y2525555D02*
Y2534445D01*
X2089355Y2530000D02*
X2098245D01*
X2093800Y2525555D02*
Y2534445D01*
X2116025Y2530000D02*
X2124915D01*
X2120470Y2525555D02*
Y2534445D01*
X2267155Y2530000D02*
X2276045D01*
X2271600Y2525555D02*
Y2534445D01*
X2241755Y2530000D02*
X2250645D01*
X2246200Y2525555D02*
Y2534445D01*
X2216355Y2530000D02*
X2225245D01*
X2220800Y2525555D02*
Y2534445D01*
X2190955Y2530000D02*
X2199845D01*
X2195400Y2525555D02*
Y2534445D01*
X2165555Y2530000D02*
X2174445D01*
X2170000Y2525555D02*
Y2534445D01*
X2140155Y2530000D02*
X2149045D01*
X2144600Y2525555D02*
Y2534445D01*
X1910000Y2301400D02*
X1922000D01*
X1916000Y2295400D02*
Y2307400D01*
X2013155Y2301400D02*
X2022045D01*
X2017600Y2296955D02*
Y2305845D01*
X1987755Y2301400D02*
X1996645D01*
X1992200Y2296955D02*
Y2305845D01*
X1962355Y2301400D02*
X1971245D01*
X1966800Y2296955D02*
Y2305845D01*
X1936955Y2301400D02*
X1945845D01*
X1941400Y2296955D02*
Y2305845D01*
X2038555Y2301400D02*
X2047445D01*
X2043000Y2296955D02*
Y2305845D01*
X2063955Y2301400D02*
X2072845D01*
X2068400Y2296955D02*
Y2305845D01*
X2087800Y2301400D02*
X2099800D01*
X2093800Y2295400D02*
Y2307400D01*
X2113485Y2301400D02*
X2122375D01*
X2117930Y2296955D02*
Y2305845D01*
X2265600Y2301400D02*
X2277600D01*
X2271600Y2295400D02*
Y2307400D01*
X2240200Y2301400D02*
X2252200D01*
X2246200Y2295400D02*
Y2307400D01*
X2214800Y2301400D02*
X2226800D01*
X2220800Y2295400D02*
Y2307400D01*
X2190670Y2301400D02*
X2202670D01*
X2196670Y2295400D02*
Y2307400D01*
X2164000Y2301400D02*
X2176000D01*
X2170000Y2295400D02*
Y2307400D01*
X2138600Y2301400D02*
X2150600D01*
X2144600Y2295400D02*
Y2307400D01*
X2834000Y2260000D02*
X2846000D01*
X2840000Y2254000D02*
Y2266000D01*
X3016000Y2260000D02*
X3028000D01*
X3022000Y2254000D02*
Y2266000D01*
X2834000Y2665000D02*
X2846000D01*
X2840000Y2659000D02*
Y2671000D01*
X3016000Y2665000D02*
X3028000D01*
X3022000Y2659000D02*
Y2671000D01*
X2737100Y2240000D02*
X2752100D01*
X2744600Y2232500D02*
Y2247500D01*
X2787900Y2240000D02*
X2802900D01*
X2795400Y2232500D02*
Y2247500D01*
X2732500Y2820000D02*
X2747500D01*
X2740000Y2812500D02*
Y2827500D01*
X2552500Y2820000D02*
X2567500D01*
X2560000Y2812500D02*
Y2827500D01*
X2352500Y3210000D02*
X2367500D01*
X2360000Y3202500D02*
Y3217500D01*
X2172500Y3210000D02*
X2187500D01*
X2180000Y3202500D02*
Y3217500D01*
X2084000Y3000000D02*
X2096000D01*
X2090000Y2994000D02*
Y3006000D01*
X2084000Y3035000D02*
X2096000D01*
X2090000Y3029000D02*
Y3041000D01*
X2084000Y3110000D02*
X2096000D01*
X2090000Y3104000D02*
Y3116000D01*
X2084000Y3145000D02*
X2096000D01*
X2090000Y3139000D02*
Y3151000D01*
X1861190Y3145000D02*
X1868810D01*
X1865000Y3141190D02*
Y3148810D01*
X1861190Y3000000D02*
X1868810D01*
X1865000Y2996190D02*
Y3003810D01*
X2439001Y3020000D02*
X2451000D01*
X2445000Y3014000D02*
Y3026000D01*
X2474000Y3020000D02*
X2486000D01*
X2480000Y3014000D02*
Y3026000D01*
X2549000Y3020000D02*
X2561000D01*
X2555000Y3014000D02*
Y3026000D01*
X2584001Y3020000D02*
X2596000D01*
X2590000Y3014000D02*
Y3026000D01*
X2586190Y3245000D02*
X2593810D01*
X2590000Y3241190D02*
Y3248810D01*
X2441190Y3245000D02*
X2448810D01*
X2445000Y3241190D02*
Y3248810D01*
X1993600Y2660000D02*
X2008600D01*
X2001100Y2652500D02*
Y2667500D01*
X2171400Y2660000D02*
X2186400D01*
X2178900Y2652500D02*
Y2667500D01*
X2862500Y3148900D02*
X2877500D01*
X2870000Y3141400D02*
Y3156400D01*
X2862500Y2971100D02*
X2877500D01*
X2870000Y2963600D02*
Y2978600D01*
X1865040Y2778260D02*
X1880040D01*
X1872540Y2770760D02*
Y2785760D01*
X1865040Y2681740D02*
X1880040D01*
X1872540Y2674240D02*
Y2689240D01*
X1865040Y2730000D02*
X1880040D01*
X1872540Y2722500D02*
Y2737500D01*
X2910760Y3240000D02*
X2925760D01*
X2918260Y3232500D02*
Y3247500D01*
X2814240Y3240000D02*
X2829240D01*
X2821740Y3232500D02*
Y3247500D01*
X2862500Y3240000D02*
X2877500D01*
X2870000Y3232500D02*
Y3247500D01*
X1967900Y3270000D02*
X1982900D01*
X1975400Y3262500D02*
Y3277500D01*
X1917100Y3270000D02*
X1932100D01*
X1924600Y3262500D02*
Y3277500D01*
X2092500Y2885000D02*
X2107500D01*
X2100000Y2877500D02*
Y2892500D01*
X1912500Y2885000D02*
X1927500D01*
X1920000Y2877500D02*
Y2892500D01*
X2352500Y3275000D02*
X2367500D01*
X2360000Y3267500D02*
Y3282500D01*
X2172500Y3275000D02*
X2187500D01*
X2180000Y3267500D02*
Y3282500D01*
X2352500Y3150000D02*
X2367500D01*
X2360000Y3142500D02*
Y3157500D01*
X2172500Y3150000D02*
X2187500D01*
X2180000Y3142500D02*
Y3157500D01*
X2427500Y2770000D02*
X2442500D01*
X2435000Y2762500D02*
Y2777500D01*
X2427500Y2950000D02*
X2442500D01*
X2435000Y2942500D02*
Y2957500D01*
X2357500Y2770000D02*
X2372500D01*
X2365000Y2762500D02*
Y2777500D01*
X2357500Y2950000D02*
X2372500D01*
X2365000Y2942500D02*
Y2957500D01*
X2732500Y2885000D02*
X2747500D01*
X2740000Y2877500D02*
Y2892500D01*
X2552500Y2885000D02*
X2567500D01*
X2560000Y2877500D02*
Y2892500D01*
X2252500Y2884600D02*
X2267500D01*
X2260000Y2877100D02*
Y2892100D01*
X2252500Y2935400D02*
X2267500D01*
X2260000Y2927900D02*
Y2942900D01*
X2862500Y2824600D02*
X2877500D01*
X2870000Y2817100D02*
Y2832100D01*
X2862500Y2875400D02*
X2877500D01*
X2870000Y2867900D02*
Y2882900D01*
X2452500Y2530000D02*
X2467500D01*
X2460000Y2522500D02*
Y2537500D01*
X2272500Y2440000D02*
X2287500D01*
X2280000Y2432500D02*
Y2447500D01*
M02*
